<svg width="31" height="16" viewBox="0 0 31 16" fill="none" xmlns="http://www.w3.org/2000/svg">
<path d="M12.6744 0.540489C8.96461 1.43594 5.51071 3.3365 2.14819 6.37008C0.448651 7.8686 0.448651 8.161 2.14819 9.65951C5.0173 12.2362 7.99606 14.0454 11.121 15.0688C12.5464 15.5439 12.9119 15.5805 15.4155 15.5988C17.9374 15.5988 18.2847 15.5622 19.8014 15.0871C22.8716 14.1002 25.6493 12.4738 28.5367 9.95191C29.8525 8.78233 30.1266 8.45339 30.1266 8.0148C30.1266 7.06452 26.0879 3.81164 22.9081 2.20348C20.2949 0.887707 18.6867 0.485665 15.8724 0.412567C14.5201 0.376018 13.0764 0.430841 12.6744 0.540489ZM18.3029 2.05728C19.5821 2.67862 20.8431 3.93956 21.501 5.25533C21.9396 6.15079 21.9944 6.49801 21.9944 8.0148C21.9944 9.53159 21.9396 9.87881 21.501 10.756C20.8614 12.0535 19.5456 13.3693 18.2481 14.0089C17.3709 14.4475 17.0237 14.5023 15.5069 14.5023C13.9718 14.5023 13.6429 14.4475 12.7292 13.9906C9.87834 12.5834 8.37982 9.44022 9.11081 6.38836C9.58595 4.39643 11.5048 2.34967 13.515 1.69179C14.8125 1.27147 17.0603 1.43594 18.3029 2.05728ZM9.36665 3.29995C9.09253 3.6289 8.65394 4.35988 8.3981 4.90812C7.97778 5.80357 7.92296 6.13251 7.92296 8.0148C7.92296 9.89708 7.97778 10.226 8.3981 11.1215C8.65394 11.6697 9.09253 12.4007 9.36665 12.7114C9.64077 13.0403 9.82352 13.3144 9.75042 13.3144C9.4763 13.3144 7.33817 12.1631 6.18687 11.3956C4.798 10.4636 2.16646 8.27064 2.16646 8.0148C2.16646 7.75895 4.798 5.566 6.18687 4.634C7.393 3.82992 9.43975 2.73344 9.71387 2.71517C9.80524 2.71517 9.64077 2.98928 9.36665 3.29995ZM22.8716 3.4827C24.498 4.32333 26.5996 5.82185 28.025 7.15589L28.9387 8.0148L28.025 8.8737C26.5996 10.2077 24.498 11.7063 22.8716 12.5469C22.0492 12.9672 21.3365 13.3144 21.2634 13.3144C21.1903 13.3144 21.3365 13.0769 21.5924 12.7662C21.8482 12.4738 22.2868 11.7428 22.5792 11.1763C23.0543 10.2077 23.0909 9.95191 23.0909 8.0148C23.0909 6.07769 23.0543 5.82185 22.5792 4.85329C22.2868 4.28678 21.8482 3.5558 21.5924 3.2634C21.3365 2.95274 21.1903 2.71517 21.2634 2.71517C21.3365 2.71517 22.0492 3.06238 22.8716 3.4827Z" fill="#B3B3B3"/>
<path d="M14.4105 5.10903C13.4054 5.51108 12.4003 6.95477 12.4003 7.95987C12.4185 8.7274 13.0216 9.91525 13.6064 10.3356C15.4156 11.6148 17.7365 10.8655 18.4126 8.78223C19.1619 6.51618 16.64 4.21358 14.4105 5.10903ZM16.8227 6.68065C17.5537 7.39336 17.5537 8.56293 16.8044 9.31219C15.5983 10.5 13.6795 9.67768 13.6795 7.97814C13.6795 7.33853 13.7891 7.08269 14.1912 6.69892C14.4653 6.44308 14.8125 6.18723 14.9587 6.13241C15.4521 5.93139 16.311 6.18723 16.8227 6.68065Z" fill="#B3B3B3"/>
</svg>
