<svg width="55" height="32" viewBox="0 0 55 32" fill="none" xmlns="http://www.w3.org/2000/svg">
<path d="M41.1422 6.90782L36.61 6.96343L36.5544 15.2493L36.471 23.5073L21.1505 23.5907L15.4851 23.6463L16.0134 24.6751C16.3192 25.259 16.5416 26.0097 16.5416 26.3434V26.9829H23.4027H39.9466V26.3434C39.9744 25.3146 40.9197 23.5629 41.9763 22.6176C44.2285 20.6434 47.5929 20.699 49.7617 22.7566C50.7626 23.7019 51.6246 25.3424 51.6246 26.2878C51.6246 26.9551 51.6802 26.9829 53.2929 26.9829H54.9612V22.4229V17.8907L51.0129 12.3576C47.7041 7.79757 46.9256 6.85221 46.3417 6.85221C45.9524 6.8244 43.6168 6.85221 41.1422 6.90782ZM48.2324 11.8293C49.4836 13.6088 50.5124 15.1659 50.5124 15.3049C50.5124 15.4717 48.0934 15.5829 44.3953 15.5829H38.2783V12.1073V8.63172H42.1153H45.9246L48.2324 11.8293Z" fill="#E9EAEA"/>
<path d="M9.75239 23.4239C5.88752 25.4815 7.30557 31.1537 11.6987 31.1537C14.8685 31.1537 16.926 27.5669 15.2299 25.0366C13.7841 22.9513 11.7821 22.3396 9.75239 23.4239Z" fill="#E9EAEA"/>
<path d="M44.5621 23.0903C42.6992 23.6464 41.3924 25.843 41.7538 27.7615C42.1431 29.8469 43.7002 31.1537 45.8411 31.1537C50.1231 31.1537 51.5411 25.3981 47.7319 23.4239C46.4251 22.7844 45.869 22.701 44.5621 23.0903Z" fill="#E9EAEA"/>
<path d="M0.961174 25.3146V26.9829H3.74166C5.7436 26.9829 6.54994 26.8717 6.63336 26.6214C6.66116 26.4546 6.91141 25.7039 7.13385 24.9532L7.57872 23.6463H4.26995H0.961174V25.3146Z" fill="#E9EAEA"/>
<path fill-rule="evenodd" clip-rule="evenodd" d="M0.961174 22.0059V11.4123V0.846436H12.0027H34.6637V11.4123V21.9781L23.236 21.9166C23.2729 21.7983 23.1684 21.4252 22.9732 21.034C22.1123 19.3082 21.7973 13.7099 22.5323 13.4784C23.3722 13.2048 24.3801 11.8158 24.926 10.1532C25.241 9.164 25.703 8.23797 25.9969 7.96437C26.5219 7.48032 26.5639 7.48032 27.5298 7.77496C28.3697 8.04856 28.6217 8.0696 29.2096 7.81705C30.1546 7.43822 30.2386 7.03835 29.5876 6.19651C29.2936 5.79663 28.8737 5.01793 28.6847 4.47073C28.1807 3.16588 27.3198 2.66078 26.1439 2.97647C25.472 3.14484 25.241 3.12379 24.8211 2.85019C24.5481 2.63973 24.1071 2.49241 23.8551 2.49241C23.4562 2.49241 23.3722 2.59764 23.3722 3.12379C23.3722 3.48157 23.5192 3.81831 23.7292 3.94458C24.0651 4.134 24.0651 4.19714 23.7921 4.3655C23.2672 4.72329 21.5034 5.03898 19.4875 5.16525C18.0597 5.24944 17.0308 5.16525 15.2879 4.82852C14.007 4.59701 12.6422 4.38655 12.2432 4.38655C11.8442 4.38655 11.0043 4.23923 10.3744 4.07086C9.00951 3.71308 8.0016 3.98668 7.32966 4.87061C6.9517 5.39676 6.8887 5.77559 6.8677 7.92228C6.8677 10.8687 6.9517 11.7948 7.28766 11.6895C7.41365 11.6474 7.64463 11.3528 7.81262 11.016C8.06459 10.5109 8.04359 10.1953 7.72862 8.67994C7.51864 7.66973 7.43465 6.68057 7.51864 6.34383C7.70763 5.56513 8.21158 5.01793 8.73653 5.01793C8.92125 5.01793 9.02472 5.01793 9.04516 5.05912C9.07118 5.11158 8.96254 5.23084 8.71553 5.50199C7.77062 6.49115 7.72862 7.14358 8.37956 9.69015C8.96751 11.9842 8.96751 12.0052 8.58955 12.9733C8.29557 13.731 8.21158 14.6991 8.16958 17.1825C8.12759 18.9504 8.19058 20.4447 8.29557 20.5078C8.37956 20.5709 8.46356 20.8445 8.46356 21.1181C8.46356 21.308 8.52674 21.4801 8.63908 21.6239C8.04888 21.7551 7.23045 21.8569 5.49336 21.8947L0.961174 22.0059ZM9.97173 21.293C10.95 21.1249 12.0816 21.1679 13.0056 21.422C14.0065 21.7279 16.0664 21.8947 19.1764 21.8947L21.8147 21.9089C21.8086 21.905 21.8028 21.9009 21.7973 21.8968C21.4824 21.6653 20.8524 19.7291 20.8524 18.9925C20.8524 18.6137 20.6634 17.7297 20.4535 16.9931C20.2225 16.2565 19.9285 15.0569 19.8025 14.3413C19.5505 13.0575 19.5505 13.0575 18.6266 12.826C18.1437 12.6997 17.1778 12.5945 16.5058 12.5945C15.8339 12.5945 14.574 12.4051 13.7341 12.1736C12.4742 11.8158 12.1382 11.7948 11.9912 12.0052C11.8862 12.1525 11.2983 13.268 10.7104 14.4886C9.76544 16.467 9.63945 16.8668 9.55546 18.3822C9.49246 19.6239 9.55546 20.2763 9.80743 20.8866C9.87221 21.0412 9.92702 21.1758 9.97173 21.293Z" fill="#E9EAEA"/>
</svg>
