<svg width="185" height="17" viewBox="0 0 185 17" fill="none" xmlns="http://www.w3.org/2000/svg">
<path d="M11.4452 12.8909H5.06857L3.2934 16.7182H0L6.28316 3.61602C6.73474 2.67679 7.15517 1.94889 7.54447 1.43232C7.94933 0.915746 8.38533 0.547882 8.85248 0.328729C9.31963 0.109576 9.87243 0 10.5109 0C11.1804 0 11.7099 0.12523 12.0992 0.37569C12.4885 0.610496 12.7843 0.986187 12.9868 1.50276C13.2048 2.01934 13.3683 2.72376 13.4773 3.61602L15.1824 16.7182H11.889L11.4452 12.8909ZM11.1649 10.4254L10.3941 3.66298C10.3474 3.25598 10.215 3.05249 9.997 3.05249C9.85686 3.05249 9.74007 3.10727 9.64664 3.21685C9.55321 3.31077 9.45978 3.45948 9.36635 3.66298L6.21309 10.4254H11.1649Z" fill="#000080"/>
<path d="M32.2434 4.39088C32.2434 5.53361 31.8774 6.52762 31.1456 7.37293C30.4293 8.21823 29.456 8.77394 28.2259 9.04006C28.9889 9.29052 29.5183 9.7523 29.8142 10.4254C30.11 11.0985 30.3203 11.9908 30.4448 13.1022L30.8886 16.7182H27.4084L26.9646 13.0787C26.8711 12.343 26.7543 11.7638 26.6142 11.3412C26.4741 10.9185 26.2327 10.5976 25.8901 10.3785C25.5631 10.1593 25.0882 10.0497 24.4653 10.0497H22.1062L20.9383 16.7182H17.6449L20.5179 0.281767H27.1281C28.7008 0.281767 29.9465 0.649631 30.8653 1.38536C31.784 2.10543 32.2434 3.10727 32.2434 4.39088ZM26.0303 7.46685C26.8867 7.46685 27.5874 7.20856 28.1324 6.69199C28.6774 6.15976 28.9499 5.47882 28.9499 4.64917C28.9499 4.05433 28.7553 3.60819 28.366 3.31077C27.9767 3.01335 27.4706 2.86464 26.8478 2.86464H23.3675L22.55 7.46685H26.0303Z" fill="#000080"/>
<path d="M48.1648 4.39088C48.1648 5.53361 47.7988 6.52762 47.067 7.37293C46.3507 8.21823 45.3774 8.77394 44.1473 9.04006C44.9103 9.29052 45.4397 9.7523 45.7356 10.4254C46.0314 11.0985 46.2417 11.9908 46.3662 13.1022L46.81 16.7182H43.3298L42.886 13.0787C42.7925 12.343 42.6758 11.7638 42.5356 11.3412C42.3955 10.9185 42.1541 10.5976 41.8115 10.3785C41.4845 10.1593 41.0096 10.0497 40.3867 10.0497H38.0276L36.8597 16.7182H33.5663L36.4393 0.281767H43.0495C44.6222 0.281767 45.8679 0.649631 46.7867 1.38536C47.7054 2.10543 48.1648 3.10727 48.1648 4.39088ZM41.9517 7.46685C42.8081 7.46685 43.5088 7.20856 44.0538 6.69199C44.5989 6.15976 44.8714 5.47882 44.8714 4.64917C44.8714 4.05433 44.6767 3.60819 44.2874 3.31077C43.8981 3.01335 43.392 2.86464 42.7692 2.86464H39.2889L38.4714 7.46685H41.9517Z" fill="#000080"/>
<path d="M52.3607 0.281767H55.6541L52.7811 16.7182H49.4877L52.3607 0.281767Z" fill="#000080"/>
<path d="M62.6508 17C61.6386 17 60.9067 16.7182 60.4552 16.1547C60.0192 15.5912 59.7311 14.6676 59.591 13.384L58.0961 0.281767H61.3895L62.6741 13.337C62.7053 13.744 62.8376 13.9475 63.0712 13.9475C63.3048 13.9475 63.515 13.744 63.7019 13.337L69.5646 0.281767H72.858L66.785 13.384C66.3335 14.3389 65.913 15.0746 65.5238 15.5912C65.15 16.1077 64.7374 16.4756 64.2858 16.6948C63.8342 16.8983 63.2892 17 62.6508 17Z" fill="#000080"/>
<path d="M80.4911 12.8909H74.1146L72.3394 16.7182H69.046L75.3291 3.61602C75.7807 2.67679 76.2012 1.94889 76.5904 1.43232C76.9953 0.915746 77.4313 0.547882 77.8985 0.328729C78.3656 0.109576 78.9184 0 79.5569 0C80.2264 0 80.7559 0.12523 81.1452 0.37569C81.5344 0.610496 81.8303 0.986187 82.0327 1.50276C82.2507 2.01934 82.4143 2.72376 82.5233 3.61602L84.2283 16.7182H80.9349L80.4911 12.8909ZM80.2109 10.4254L79.4401 3.66298C79.3933 3.25598 79.261 3.05249 79.043 3.05249C78.9028 3.05249 78.786 3.10727 78.6926 3.21685C78.5992 3.31077 78.5058 3.45948 78.4123 3.66298L75.2591 10.4254H80.2109Z" fill="#000080"/>
<path d="M91.2332 16.7182C89.5826 16.7182 88.3603 16.4052 87.5661 15.779C86.7875 15.1529 86.3982 14.2215 86.3982 12.9848C86.3982 12.5465 86.4449 12.0847 86.5384 11.5994L88.5237 0.281767H91.8171L89.8318 11.5994C89.7851 11.8969 89.7617 12.163 89.7617 12.3978C89.7617 12.9926 89.9174 13.4309 90.2288 13.7127C90.5403 13.9945 91.023 14.1354 91.677 14.1354H96.9091L96.4653 16.7182H91.2332Z" fill="#000080"/>
<path d="M103.872 16.7182C102.159 16.7182 100.89 16.4052 100.064 15.779C99.239 15.1529 98.8264 14.2058 98.8264 12.9378C98.8264 12.4369 98.8653 11.9908 98.9432 11.5994L100.041 5.40055C100.321 3.75691 100.991 2.49678 102.05 1.62017C103.109 0.7279 104.674 0.281767 106.745 0.281767H112.21L111.766 2.86464H106.301C105.476 2.86464 104.814 3.06031 104.315 3.45166C103.833 3.82735 103.506 4.47698 103.334 5.40055L103.007 7.20856H109.968L109.524 9.79144H102.564L102.237 11.5994C102.19 11.8812 102.167 12.1317 102.167 12.3508C102.167 12.9613 102.338 13.4153 102.68 13.7127C103.039 13.9945 103.584 14.1354 104.315 14.1354H109.828L109.384 16.7182H103.872Z" fill="#F41C38"/>
<path d="M120.741 8.71133L124.292 16.7182H120.555L118.172 11.2942L113.874 16.7182H110.207L116.864 8.33563L113.314 0.281767H117.028L119.433 5.75276L123.754 0.281767H127.398L120.741 8.71133Z" fill="#F41C38"/>
<path d="M129.39 0.281767H135.767C137.573 0.281767 138.904 0.641804 139.761 1.36188C140.633 2.0663 141.069 3.17772 141.069 4.69613C141.069 5.93278 140.796 7.01289 140.251 7.93646C139.706 8.84438 138.928 9.54098 137.916 10.0262C136.919 10.5115 135.751 10.7541 134.412 10.7541H130.862L129.811 16.7182H126.517L129.39 0.281767ZM134.786 8.17127C135.72 8.17127 136.452 7.8582 136.981 7.23204C137.511 6.59024 137.776 5.7919 137.776 4.83702C137.776 3.5221 137.09 2.86464 135.72 2.86464H132.24L131.306 8.17127H134.786Z" fill="#F41C38"/>
<path d="M146.481 16.7182C144.768 16.7182 143.499 16.4052 142.673 15.779C141.848 15.1529 141.436 14.2058 141.436 12.9378C141.436 12.4369 141.474 11.9908 141.552 11.5994L142.65 5.40055C142.93 3.75691 143.6 2.49678 144.659 1.62017C145.718 0.7279 147.283 0.281767 149.354 0.281767H154.819L154.376 2.86464H148.91C148.085 2.86464 147.423 3.06031 146.925 3.45166C146.442 3.82735 146.115 4.47698 145.944 5.40055L145.617 7.20856H152.577L152.133 9.79144H145.173L144.846 11.5994C144.799 11.8812 144.776 12.1317 144.776 12.3508C144.776 12.9613 144.947 13.4153 145.29 13.7127C145.648 13.9945 146.193 14.1354 146.925 14.1354H152.437L151.993 16.7182H146.481Z" fill="#F41C38"/>
<path d="M169.4 4.39088C169.4 5.53361 169.034 6.52762 168.302 7.37293C167.586 8.21823 166.613 8.77394 165.383 9.04006C166.146 9.29052 166.675 9.7523 166.971 10.4254C167.267 11.0985 167.477 11.9908 167.602 13.1022L168.045 16.7182H164.565L164.121 13.0787C164.028 12.343 163.911 11.7638 163.771 11.3412C163.631 10.9185 163.389 10.5976 163.047 10.3785C162.72 10.1593 162.245 10.0497 161.622 10.0497H159.263L158.095 16.7182H154.802L157.675 0.281767H164.285C165.858 0.281767 167.103 0.649631 168.022 1.38536C168.941 2.10543 169.4 3.10727 169.4 4.39088ZM163.187 7.46685C164.043 7.46685 164.744 7.20856 165.289 6.69199C165.834 6.15976 166.107 5.47882 166.107 4.64917C166.107 4.05433 165.912 3.60819 165.523 3.31077C165.133 3.01335 164.627 2.86464 164.005 2.86464H160.524L159.707 7.46685H163.187Z" fill="#F41C38"/>
<path d="M176.334 2.86464H171.406L171.85 0.281767H185L184.556 2.86464H179.628L177.199 16.7182H173.905L176.334 2.86464Z" fill="#F41C38"/>
</svg>
