<svg width="34" height="25" viewBox="0 0 34 25" fill="none" xmlns="http://www.w3.org/2000/svg">
<path d="M32.2601 24.5616L21.5757 10.6885C20.1884 11.7652 18.9875 13.0283 17.8072 14.3431L25.4271 24.5616H32.2601Z" fill="#F41C38"/>
<path d="M33.6474 0.335327H26.6695L12.0095 20.5548L9.02787 24.665L14.8773 24.7582L15.4468 24.7685V24.7582L16.5028 23.3502L33.6474 0.335327Z" fill="#F41C38"/>
<path d="M26.6694 0.335449C24.6713 3.02724 22.3522 6.36093 20.3437 9.02166C19.9917 8.59718 18.0039 6.02963 17.9936 6.02963H11.6161C11.6161 6.02963 14.5667 9.21837 14.9808 9.97414C15.7573 9.73602 17.4449 9.21837 17.7865 9.15625C18.2835 9.07342 19.3395 9.18731 19.3395 9.18731C19.4534 9.21837 19.5362 9.24943 19.6087 9.29084C19.6915 9.3426 19.7329 9.41508 19.7743 9.4979H19.7536V9.64284C19.7536 9.64284 19.6087 9.98449 19.5362 10.0777C19.4016 10.264 19.267 10.4504 19.1324 10.6264C19.0599 10.7196 18.9978 10.8127 18.9254 10.9059C18.739 11.1544 18.563 11.3925 18.3145 11.5996C18.1385 11.7445 17.7244 11.9205 17.7244 11.9205C17.5484 11.9826 17.362 12.0344 17.1757 12.0965C16.9376 12.169 16.1818 12.0862 16.0783 12.0448C16.0783 12.0551 16.3164 12.3346 17.1446 13.5252C18.0246 14.7883 18.7908 17.0246 19.971 18.7121L25.396 11.4753C28.0982 7.81035 31.0384 3.83478 33.6474 0.335449H26.6694Z" fill="#F41C38"/>
<path d="M25.9758 0.231689H7.25749C6.81231 0.231689 6.34642 0.283455 5.87018 0.46981C5.40429 0.656164 4.96947 0.904638 4.5657 1.25664C4.17228 1.60865 3.82028 2.02277 3.53039 2.51971C3.44757 2.6543 3.37509 2.79925 3.31298 2.94419C3.11627 3.3376 2.96097 3.77243 2.85744 4.23832L0.0207074 19.7886L0 19.6126V19.6437C0 23.671 2.09132 24.727 3.82028 24.727L8.38597 24.6649L11.378 20.534H11.0364C10.9018 20.4305 10.7568 20.2338 10.5912 20.1095C10.5912 20.1095 10.4773 20.0267 10.4152 20.006C10.3841 19.9957 10.2288 19.9957 10.2185 19.9957C10.0528 19.9957 9.88716 20.0267 9.73187 20.0681C9.61798 20.1095 9.51446 20.1406 9.40057 20.1613C9.40057 20.151 9.21422 20.2338 9.18316 20.2545C9.16245 20.2648 9.13139 20.2855 9.11069 20.2959C8.80009 20.5754 8.35491 20.7514 7.84761 20.7514C7.16431 20.7514 6.58454 20.4305 6.32572 19.975L6.30501 19.9646C6.19112 19.9335 6.08759 19.8921 5.99442 19.83C5.777 19.7058 5.76665 19.1881 5.76665 19.1881C5.71489 19.0846 5.68383 18.9604 5.67347 18.8258C5.66312 18.7015 5.67347 18.5669 5.70453 18.4324C5.73559 18.2978 5.78736 18.1839 5.84947 18.0803C5.88053 18.0286 5.92195 17.9768 5.96336 17.9354C6.49136 17.2314 6.58454 14.6017 6.56383 14.4775C6.54313 14.3429 6.41889 12.1688 6.35677 12.0859C6.35677 12.0859 4.89699 12.2723 4.78311 12.2412C4.5864 12.1998 4.36899 12.148 4.17228 12.0963C3.94451 12.0342 3.73745 11.9513 3.56145 11.8375C3.37509 11.7236 3.20945 11.589 3.0645 11.4337C2.84709 11.1956 2.65038 10.9367 2.45367 10.6469C2.35014 10.4916 2.01885 9.74614 2.01885 9.74614C2.16379 9.4252 2.47438 9.36308 2.79532 9.32167C3.19909 9.2699 3.59251 9.28026 3.98592 9.33202C4.36899 9.38379 4.75205 9.49767 5.12476 9.65296C5.14547 9.66332 5.48712 9.68402 5.88054 9.71508C6.50172 9.75649 7.06078 9.33202 7.19537 8.72119L7.76479 6.15363C7.76479 6.14328 8.09609 5.67739 8.42738 5.53245L22.3315 5.42892L23.6567 3.6482L26.0793 0.231689H25.9758Z" fill="#000080"/>
</svg>
