<svg width="36" height="32" viewBox="0 0 36 32" fill="none" xmlns="http://www.w3.org/2000/svg">
<path d="M1.00467 9.85796L0.870069 20.2896C-0.0990679 21.528 0.555997 21.8824 1.00467 21.9049C2.02765 21.6357 2.5526 20.8505 2.6872 20.4915V15.1074C2.57952 13.2768 4.07809 12.3705 4.84084 12.1462H16.0128C17.8434 11.9308 19.2616 14.5017 20.4547 16.5208C21.6478 18.5398 23.2365 18.7417 24.089 18.6744V15.8478C24.0351 15.2555 24.2909 14.8831 24.4255 14.7709C26.1484 14.2325 28.0149 10.4188 28.7328 8.57922H32.0305C35.4225 9.6022 35.777 7.21077 35.5302 5.88718L34.2515 4.67576L32.0305 2.25291C31.1152 0.314638 29.5852 -0.0353303 28.9347 0.0319696C27.2118 -0.183394 25.9734 0.749859 25.5696 1.24341C23.5775 -0.0487762 22.227 0.435792 21.8007 0.839599C21.1008 2.18562 22.4962 3.15027 23.2814 3.46435C21.5585 5.5103 12.3337 5.12444 7.93669 4.67577C2.5526 2.95285 1.07197 7.41268 1.00467 9.85796Z" fill="white"/>
<path d="M4.23518 14.569V24.8697C4.23518 25.2022 4.50474 25.4718 4.83726 25.4718C5.14538 25.4718 5.39647 25.7082 5.4935 26.0007C5.73306 26.7227 6.24904 27.1916 6.52342 27.3562V27.6927H3.62947C2.21703 27.6927 1.07202 28.8377 1.07202 30.2502C1.12586 31.3808 2.03667 31.843 2.48535 31.9327H6.30521C9.1375 31.9327 11.9197 31.1861 14.3716 29.7682C15.1348 29.3269 15.0163 28.3535 14.1402 28.2544C12.8691 28.1106 11.4447 28.0829 10.6288 28.0965V27.6927C11.6518 27.3159 11.9075 26.0551 11.9075 25.4718H16.3494C16.7801 27.8408 18.8171 28.3433 19.7817 28.2985C21.72 28.46 22.7879 26.4813 23.0795 25.4718H24.4255V21.6356C24.4255 20.5588 23.8423 20.0653 23.5506 19.9531H14.3304C12.9843 19.8993 12.3786 18.8987 12.244 18.4052V14.4344C12.2979 13.8422 11.9972 13.6941 11.8402 13.6941H5.24469C4.65244 13.6941 4.32491 14.2774 4.23518 14.569Z" fill="white"/>
<path d="M16.1475 13.6941C16.9672 13.7852 18.5187 16.0011 19.5071 17.6053C19.7245 17.9583 19.4669 18.4052 19.0523 18.4052H18.3684C15.7666 18.4052 13.6573 16.296 13.6573 13.6941H16.1475Z" fill="white"/>
<path fill-rule="evenodd" clip-rule="evenodd" d="M16.6859 31.9999C19.1985 30.2052 26.0946 26.5081 33.5785 26.0774V22.5777H28.329V25.3371H26.2427V16.6266C26.2427 16.0048 26.7361 15.4952 27.3576 15.4751C27.9187 15.457 28.3539 15.8535 28.3408 16.4147C28.3394 16.4763 28.3379 16.538 28.3364 16.599C28.3282 16.9329 28.3205 17.2452 28.329 17.3956H33.5785V16.386C33.5785 15.8656 34.0004 15.4438 34.5207 15.4438C35.0411 15.4438 35.4629 15.8656 35.4629 16.386V17.7994V30.1828C35.3732 30.7885 34.8707 31.9999 33.5785 31.9999H16.6859ZM33.4438 18.5396H28.4635V21.3662H33.4438V18.5396Z" fill="white"/>
</svg>
