<svg width="33" height="34" viewBox="0 0 33 34" fill="none" xmlns="http://www.w3.org/2000/svg">
<path d="M10.6563 3.9375C10.6563 3.664 10.5476 3.40169 10.3542 3.2083C10.1608 3.0149 9.89852 2.90625 9.62502 2.90625C9.35151 2.90625 9.08921 3.0149 8.89581 3.2083C8.70242 3.40169 8.59377 3.664 8.59377 3.9375V6.11C6.61377 6.26812 5.31577 6.65587 4.36152 7.6115C3.40589 8.56575 3.01814 9.86513 2.85864 11.8438L30.1414 11.8438C29.9819 9.86375 29.5941 8.56575 28.6385 7.6115C27.6843 6.65587 26.3849 6.26813 24.4063 6.10862V3.9375C24.4063 3.664 24.2976 3.40169 24.1042 3.2083C23.9108 3.0149 23.6485 2.90625 23.375 2.90625C23.1015 2.90625 22.8392 3.0149 22.6458 3.2083C22.4524 3.40169 22.3438 3.664 22.3438 3.9375V6.01787C21.4294 6 20.4036 6 19.25 6L13.75 6C12.5964 6 11.5706 6 10.6563 6.01787V3.9375Z" fill="#797777"/>
<path fill-rule="evenodd" clip-rule="evenodd" d="M2.75 17C2.75 15.8464 2.75 14.8206 2.76788 13.9062L30.2321 13.9063C30.25 14.8206 30.25 15.8464 30.25 17V19.75C30.25 24.9351 30.25 27.5284 28.6385 29.1385C27.027 30.7486 24.4351 30.75 19.25 30.75L13.75 30.75C8.56488 30.75 5.97162 30.75 4.3615 29.1385C2.75137 27.527 2.75 24.9351 2.75 19.75L2.75 17ZM23.375 19.75C23.7397 19.75 24.0894 19.6051 24.3473 19.3473C24.6051 19.0894 24.75 18.7397 24.75 18.375C24.75 18.0103 24.6051 17.6606 24.3473 17.4027C24.0894 17.1449 23.7397 17 23.375 17C23.0103 17 22.6606 17.1449 22.4027 17.4027C22.1449 17.6606 22 18.0103 22 18.375C22 18.7397 22.1449 19.0894 22.4027 19.3473C22.6606 19.6051 23.0103 19.75 23.375 19.75ZM23.375 25.25C23.7397 25.25 24.0894 25.1051 24.3473 24.8473C24.6051 24.5894 24.75 24.2397 24.75 23.875C24.75 23.5103 24.6051 23.1606 24.3473 22.9027C24.0894 22.6449 23.7397 22.5 23.375 22.5C23.0103 22.5 22.6606 22.6449 22.4027 22.9027C22.1449 23.1606 22 23.5103 22 23.875C22 24.2397 22.1449 24.5894 22.4027 24.8473C22.6606 25.1051 23.0103 25.25 23.375 25.25ZM17.875 18.375C17.875 18.7397 17.7301 19.0894 17.4723 19.3473C17.2144 19.6051 16.8647 19.75 16.5 19.75C16.1353 19.75 15.7856 19.6051 15.5277 19.3473C15.2699 19.0894 15.125 18.7397 15.125 18.375C15.125 18.0103 15.2699 17.6606 15.5277 17.4027C15.7856 17.1449 16.1353 17 16.5 17C16.8647 17 17.2144 17.1449 17.4723 17.4027C17.7301 17.6606 17.875 18.0103 17.875 18.375ZM17.875 23.875C17.875 24.2397 17.7301 24.5894 17.4723 24.8473C17.2144 25.1051 16.8647 25.25 16.5 25.25C16.1353 25.25 15.7856 25.1051 15.5277 24.8473C15.2699 24.5894 15.125 24.2397 15.125 23.875C15.125 23.5103 15.2699 23.1606 15.5277 22.9027C15.7856 22.6449 16.1353 22.5 16.5 22.5C16.8647 22.5 17.2144 22.6449 17.4723 22.9027C17.7301 23.1606 17.875 23.5103 17.875 23.875ZM9.625 19.75C9.98967 19.75 10.3394 19.6051 10.5973 19.3473C10.8551 19.0894 11 18.7397 11 18.375C11 18.0103 10.8551 17.6606 10.5973 17.4027C10.3394 17.1449 9.98967 17 9.625 17C9.26033 17 8.91059 17.1449 8.65273 17.4027C8.39487 17.6606 8.25 18.0103 8.25 18.375C8.25 18.7397 8.39487 19.0894 8.65273 19.3473C8.91059 19.6051 9.26033 19.75 9.625 19.75ZM9.625 25.25C9.98967 25.25 10.3394 25.1051 10.5973 24.8473C10.8551 24.5894 11 24.2397 11 23.875C11 23.5103 10.8551 23.1606 10.5973 22.9027C10.3394 22.6449 9.98967 22.5 9.625 22.5C9.26033 22.5 8.91059 22.6449 8.65273 22.9027C8.39487 23.1606 8.25 23.5103 8.25 23.875C8.25 24.2397 8.39487 24.5894 8.65273 24.8473C8.91059 25.1051 9.26033 25.25 9.625 25.25Z" fill="#797777"/>
</svg>
